<svg width="35" height="35" viewBox="0 0 35 35" fill="none" xmlns="http://www.w3.org/2000/svg">
<path d="M7.56667 22.4167C6.91776 20.95 6.58281 19.3638 6.58333 17.76C6.58333 11.585 11.4333 6.58333 17.4167 6.58333C23.4 6.58333 28.25 11.5867 28.25 17.76C28.2505 19.3638 27.9156 20.95 27.2667 22.4167M17.4167 0.75V2.41667M34.0833 17.4167H32.4167M2.41667 17.4167H0.75M29.2 5.63167L28.0217 6.81M6.81167 6.81167L5.63333 5.63333M21.6117 29.595C23.295 29.05 23.9717 27.5083 24.1617 25.9583C24.2183 25.495 23.8367 25.11 23.37 25.11H11.545C11.431 25.1082 11.318 25.1306 11.2133 25.1757C11.1087 25.2209 11.0148 25.2877 10.9379 25.3719C10.861 25.456 10.8029 25.5555 10.7673 25.6638C10.7318 25.7721 10.7196 25.8867 10.7317 26C10.9183 27.5467 11.3883 28.6767 13.1717 29.5933M21.6117 29.595L13.1717 29.5933M21.6117 29.595C21.41 32.8367 20.4733 34.12 17.4283 34.0833C14.1717 34.1433 13.4217 32.555 13.1717 29.5933" stroke="#253017" stroke-width="1.5" stroke-linecap="round" stroke-linejoin="round"/>
</svg>
