<svg width="77" height="77" viewBox="0 0 77 77" fill="none" xmlns="http://www.w3.org/2000/svg">
<path d="M63.1729 66.2696C60.2611 62.4154 56.4943 59.2897 52.1691 57.1387C47.8439 54.9877 43.0785 53.87 38.2479 53.8738C33.4174 53.87 28.6519 54.9877 24.3268 57.1387C20.0016 59.2897 16.2348 62.4154 13.3229 66.2696M63.1729 66.2696C68.8542 61.2162 72.8651 54.5552 74.6737 47.17C76.4823 39.7847 76.0032 32.0241 73.2999 24.9174C70.5966 17.8107 65.7968 11.6937 59.5371 7.37751C53.2774 3.06135 45.8535 0.75 38.25 0.75C30.6465 0.75 23.2226 3.06135 16.9629 7.37751C10.7032 11.6937 5.90346 17.8107 3.20015 24.9174C0.496839 32.0241 0.0177213 39.7847 1.82633 47.17C3.63495 54.5552 7.64167 61.2162 13.3229 66.2696M63.1729 66.2696C56.3139 72.3857 47.4377 75.7603 38.2479 75.7488C29.0567 75.7613 20.1831 72.3866 13.3229 66.2696M50.7479 28.8738C50.7479 32.189 49.431 35.3684 47.0868 37.7126C44.7426 40.0568 41.5631 41.3738 38.2479 41.3738C34.9327 41.3738 31.7533 40.0568 29.4091 37.7126C27.0649 35.3684 25.7479 32.189 25.7479 28.8738C25.7479 25.5586 27.0649 22.3791 29.4091 20.0349C31.7533 17.6907 34.9327 16.3738 38.2479 16.3738C41.5631 16.3738 44.7426 17.6907 47.0868 20.0349C49.431 22.3791 50.7479 25.5586 50.7479 28.8738Z" stroke="#253017" stroke-width="1.5" stroke-linecap="round" stroke-linejoin="round"/>
</svg>
