<svg width="24" height="24" viewBox="0 0 24 24" fill="none" xmlns="http://www.w3.org/2000/svg">
<path d="M8.34807 6.18605C7.96667 6.18605 7.65039 5.86977 7.65039 5.48837V2.69767C7.65039 2.31628 7.96667 2 8.34807 2C8.72946 2 9.04574 2.31628 9.04574 2.69767V5.48837C9.04574 5.86977 8.72946 6.18605 8.34807 6.18605Z" fill="#253017"/>
<path d="M15.7914 6.18605C15.41 6.18605 15.0938 5.86977 15.0938 5.48837V2.69767C15.0938 2.31628 15.41 2 15.7914 2C16.1728 2 16.4891 2.31628 16.4891 2.69767V5.48837C16.4891 5.86977 16.1728 6.18605 15.7914 6.18605Z" fill="#253017"/>
<path d="M8.81305 14.326C8.69211 14.326 8.57118 14.2981 8.45956 14.2516C8.33863 14.2051 8.2456 14.14 8.15258 14.0562C7.98514 13.8795 7.88281 13.6469 7.88281 13.3958C7.88281 13.2748 7.91072 13.1539 7.95723 13.0423C8.00374 12.9307 8.06886 12.8283 8.15258 12.7353C8.2456 12.6516 8.33863 12.5865 8.45956 12.5399C8.79444 12.4004 9.21304 12.4749 9.47351 12.7353C9.64095 12.9121 9.74328 13.1539 9.74328 13.3958C9.74328 13.4516 9.73397 13.5167 9.72467 13.5818C9.71537 13.6376 9.69676 13.6935 9.66886 13.7493C9.65025 13.8051 9.62235 13.8609 9.58514 13.9167C9.55723 13.9632 9.51072 14.0097 9.47351 14.0562C9.29677 14.2237 9.05491 14.326 8.81305 14.326Z" fill="#253017"/>
<path d="M12.0689 14.3262C11.948 14.3262 11.827 14.2983 11.7154 14.2518C11.5945 14.2053 11.5015 14.1402 11.4084 14.0565C11.241 13.8797 11.1387 13.6472 11.1387 13.396C11.1387 13.2751 11.1666 13.1541 11.2131 13.0425C11.2596 12.9309 11.3247 12.8286 11.4084 12.7355C11.5015 12.6518 11.5945 12.5867 11.7154 12.5402C12.0503 12.3913 12.4689 12.4751 12.7294 12.7355C12.8968 12.9123 12.9991 13.1541 12.9991 13.396C12.9991 13.4518 12.9898 13.5169 12.9805 13.5821C12.9712 13.6379 12.9526 13.6937 12.9247 13.7495C12.9061 13.8053 12.8782 13.8611 12.841 13.9169C12.8131 13.9634 12.7666 14.0099 12.7294 14.0565C12.5526 14.2239 12.3108 14.3262 12.0689 14.3262Z" fill="#253017"/>
<path d="M15.3248 14.3262C15.2038 14.3262 15.0829 14.2983 14.9713 14.2518C14.8503 14.2053 14.7573 14.1402 14.6643 14.0565C14.6271 14.0099 14.5899 13.9634 14.5527 13.9169C14.5155 13.8611 14.4876 13.8053 14.469 13.7495C14.441 13.6937 14.4224 13.6379 14.4131 13.5821C14.4038 13.5169 14.3945 13.4518 14.3945 13.396C14.3945 13.1541 14.4969 12.9123 14.6643 12.7355C14.7573 12.6518 14.8503 12.5867 14.9713 12.5402C15.3155 12.3913 15.7248 12.4751 15.9852 12.7355C16.1527 12.9123 16.255 13.1541 16.255 13.396C16.255 13.4518 16.2457 13.5169 16.2364 13.5821C16.2271 13.6379 16.2085 13.6937 16.1806 13.7495C16.162 13.8053 16.1341 13.8611 16.0969 13.9169C16.069 13.9634 16.0224 14.0099 15.9852 14.0565C15.8085 14.2239 15.5666 14.3262 15.3248 14.3262Z" fill="#253017"/>
<path d="M8.81305 17.5813C8.69211 17.5813 8.57118 17.5534 8.45956 17.5068C8.34793 17.4603 8.2456 17.3952 8.15258 17.3115C7.98514 17.1347 7.88281 16.8929 7.88281 16.651C7.88281 16.5301 7.91072 16.4092 7.95723 16.2975C8.00374 16.1766 8.06886 16.0743 8.15258 15.9906C8.49677 15.6464 9.12932 15.6464 9.47351 15.9906C9.64095 16.1673 9.74328 16.4092 9.74328 16.651C9.74328 16.8929 9.64095 17.1347 9.47351 17.3115C9.29677 17.4789 9.05491 17.5813 8.81305 17.5813Z" fill="#253017"/>
<path d="M12.0689 17.5813C11.827 17.5813 11.5852 17.4789 11.4084 17.3115C11.241 17.1347 11.1387 16.8929 11.1387 16.651C11.1387 16.5301 11.1666 16.4092 11.2131 16.2975C11.2596 16.1766 11.3247 16.0743 11.4084 15.9906C11.7526 15.6464 12.3852 15.6464 12.7294 15.9906C12.8131 16.0743 12.8782 16.1766 12.9247 16.2975C12.9712 16.4092 12.9991 16.5301 12.9991 16.651C12.9991 16.8929 12.8968 17.1347 12.7294 17.3115C12.5526 17.4789 12.3108 17.5813 12.0689 17.5813Z" fill="#253017"/>
<path d="M15.3248 17.582C15.0829 17.582 14.841 17.4797 14.6643 17.3122C14.5806 17.2285 14.5155 17.1262 14.469 17.0053C14.4224 16.8936 14.3945 16.7727 14.3945 16.6518C14.3945 16.5308 14.4224 16.4099 14.469 16.2983C14.5155 16.1773 14.5806 16.075 14.6643 15.9913C14.8783 15.7774 15.2038 15.675 15.5015 15.7401C15.5666 15.7494 15.6224 15.768 15.6783 15.7959C15.7341 15.8145 15.7899 15.8425 15.8457 15.8797C15.8922 15.9076 15.9387 15.9541 15.9852 15.9913C16.1527 16.1681 16.255 16.4099 16.255 16.6518C16.255 16.8936 16.1527 17.1355 15.9852 17.3122C15.8085 17.4797 15.5666 17.582 15.3248 17.582Z" fill="#253017"/>
<path d="M19.9765 9.99105H4.16252C3.78112 9.99105 3.46484 9.67477 3.46484 9.29338C3.46484 8.91198 3.78112 8.5957 4.16252 8.5957H19.9765C20.3579 8.5957 20.6741 8.91198 20.6741 9.29338C20.6741 9.67477 20.3579 9.99105 19.9765 9.99105Z" fill="#253017"/>
<path d="M15.7907 21.9992H8.34884C4.95349 21.9992 3 20.0457 3 16.6503V8.74337C3 5.34802 4.95349 3.39453 8.34884 3.39453H15.7907C19.186 3.39453 21.1395 5.34802 21.1395 8.74337V16.6503C21.1395 20.0457 19.186 21.9992 15.7907 21.9992ZM8.34884 4.78988C5.68837 4.78988 4.39535 6.0829 4.39535 8.74337V16.6503C4.39535 19.3108 5.68837 20.6038 8.34884 20.6038H15.7907C18.4512 20.6038 19.7442 19.3108 19.7442 16.6503V8.74337C19.7442 6.0829 18.4512 4.78988 15.7907 4.78988H8.34884Z" fill="#253017"/>
</svg>
