<svg width="18.29" height="20" viewBox="0 0 19 20" fill="none" xmlns="http://www.w3.org/2000/svg"> <path d="M3.08544 16.9705C2.51331 16.9705 1.9787 16.7735 1.59415 16.4078C1.10643 15.9482 0.871954 15.2541 0.956367 14.5038L1.3034 11.4649C1.36905 10.8928 1.71608 10.1331 2.11939 9.72039L9.81971 1.56987C11.7424 -0.465415 13.7496 -0.52169 15.7849 1.40105C17.8202 3.32378 17.8764 5.33093 15.9537 7.36621L8.25338 15.5167C7.85945 15.9388 7.12788 16.3327 6.55575 16.4265L3.53565 16.9424C3.3762 16.9518 3.23551 16.9705 3.08544 16.9705ZM12.8304 1.39167C12.1082 1.39167 11.4798 1.84187 10.842 2.51717L3.14172 10.6771C2.95414 10.874 2.73841 11.343 2.7009 11.615L2.35387 14.6538C2.31635 14.9634 2.39138 15.2166 2.56021 15.376C2.72903 15.5355 2.98227 15.5918 3.29179 15.5449L6.31189 15.029C6.58388 14.9821 7.03409 14.7383 7.22167 14.5413L14.922 6.39078C16.085 5.15272 16.5071 4.00846 14.8094 2.414C14.0591 1.6918 13.4119 1.39167 12.8304 1.39167Z" fill="currentColor"/> <path d="M14.1535 8.93264C14.1348 8.93264 14.1066 8.93264 14.0879 8.93264C11.1616 8.64189 8.8074 6.41902 8.3572 3.51147C8.30092 3.12692 8.56354 2.77051 8.94809 2.70485C9.33264 2.64858 9.68904 2.9112 9.7547 3.29574C10.1111 5.56551 11.9494 7.31004 14.238 7.53514C14.6225 7.57266 14.9039 7.91969 14.8664 8.30423C14.8195 8.66064 14.51 8.93264 14.1535 8.93264Z" fill="currentColor"/> <path d="M17.586 20.0006H0.70344C0.318893 20.0006 0 19.6817 0 19.2972C0 18.9126 0.318893 18.5938 0.70344 18.5938H17.586C17.9705 18.5938 18.2894 18.9126 18.2894 19.2972C18.2894 19.6817 17.9705 20.0006 17.586 20.0006Z" fill="currentColor"/> </svg>