<svg width="24" height="24" viewBox="0 0 24 24" fill="none" xmlns="http://www.w3.org/2000/svg">
<path d="M6.09 14.998C5.70066 14.118 5.49969 13.1663 5.5 12.204C5.5 8.49905 8.41 5.49805 12 5.49805C15.59 5.49805 18.5 8.50005 18.5 12.204C18.5003 13.1663 18.2993 14.118 17.91 14.998M12 1.99805V2.99805M22 11.998H21M3 11.998H2M19.07 4.92705L18.363 5.63405M5.637 5.63505L4.93 4.92805M14.517 19.305C15.527 18.978 15.933 18.053 16.047 17.123C16.081 16.845 15.852 16.614 15.572 16.614H8.477C8.40862 16.613 8.3408 16.6264 8.278 16.6535C8.21521 16.6806 8.15888 16.7207 8.11275 16.7712C8.06662 16.8216 8.03173 16.8813 8.0104 16.9463C7.98906 17.0113 7.98177 17.08 7.989 17.148C8.101 18.076 8.383 18.754 9.453 19.304M14.517 19.305L9.453 19.304M14.517 19.305C14.396 21.25 13.834 22.02 12.007 21.998C10.053 22.034 9.603 21.081 9.453 19.304" stroke="#253017" stroke-width="1.5" stroke-linecap="round" stroke-linejoin="round"/>
</svg>
