<svg width="20" height="20" viewBox="0 0 20 20" fill="none" xmlns="http://www.w3.org/2000/svg">
<path d="M12.7907 20H7.2093C2.15814 20 0 17.8419 0 12.7907V7.2093C0 2.15814 2.15814 0 7.2093 0H12.7907C17.8419 0 20 2.15814 20 7.2093V12.7907C20 17.8419 17.8419 20 12.7907 20ZM7.2093 1.39535C2.92093 1.39535 1.39535 2.92093 1.39535 7.2093V12.7907C1.39535 17.0791 2.92093 18.6047 7.2093 18.6047H12.7907C17.0791 18.6047 18.6047 17.0791 18.6047 12.7907V7.2093C18.6047 2.92093 17.0791 1.39535 12.7907 1.39535H7.2093Z" fill="#253017"/>
<path d="M10 10.9308C9.47907 10.9308 9.06976 10.5122 9.06976 10.0005C9.06976 9.48892 9.48837 9.07031 10 9.07031C10.5116 9.07031 10.9302 9.48892 10.9302 10.0005C10.9302 10.5122 10.5209 10.9308 10 10.9308Z" fill="#253017"/>
<path d="M13.7209 10.9308C13.2 10.9308 12.7907 10.5122 12.7907 10.0005C12.7907 9.48892 13.2093 9.07031 13.7209 9.07031C14.2326 9.07031 14.6512 9.48892 14.6512 10.0005C14.6512 10.5122 14.2419 10.9308 13.7209 10.9308Z" fill="#253017"/>
<path d="M6.27906 10.9308C5.75813 10.9308 5.34883 10.5122 5.34883 10.0005C5.34883 9.48892 5.76744 9.07031 6.27906 9.07031C6.79069 9.07031 7.2093 9.48892 7.2093 10.0005C7.2093 10.5122 6.79999 10.9308 6.27906 10.9308Z" fill="#253017"/>
</svg>
