<svg width="32" height="32" viewBox="0 0 32 32" fill="none" xmlns="http://www.w3.org/2000/svg">
<rect width="32" height="32" rx="16" transform="matrix(-1 0 0 1 32 0)" fill="#E4E8DF"/>
<path d="M13.7934 21.3333C13.6765 21.3333 13.5596 21.2902 13.4673 21.1979C13.2889 21.0195 13.2889 20.7242 13.4673 20.5458L17.4787 16.5344C17.774 16.2391 17.774 15.7592 17.4787 15.4639L13.4673 11.4526C13.2889 11.2742 13.2889 10.9789 13.4673 10.8004C13.6457 10.622 13.941 10.622 14.1195 10.8004L18.1308 14.8118C18.4446 15.1256 18.623 15.5501 18.623 15.9992C18.623 16.4483 18.4507 16.8728 18.1308 17.1866L14.1195 21.1979C14.0272 21.2841 13.9103 21.3333 13.7934 21.3333Z" fill="#69735D"/>
</svg>
