<svg width="18" height="20" viewBox="0 0 18 20" fill="none" xmlns="http://www.w3.org/2000/svg">
<path d="M14.25 5.75C14.913 5.75 15.5489 5.48661 16.0178 5.01777C16.4866 4.54893 16.75 3.91304 16.75 3.25C16.75 2.58696 16.4866 1.95107 16.0178 1.48223C15.5489 1.01339 14.913 0.75 14.25 0.75C13.587 0.75 12.9511 1.01339 12.4822 1.48223C12.0134 1.95107 11.75 2.58696 11.75 3.25C11.75 3.91304 12.0134 4.54893 12.4822 5.01777C12.9511 5.48661 13.587 5.75 14.25 5.75ZM3.25 12.25C3.91304 12.25 4.54893 11.9866 5.01777 11.5178C5.48661 11.0489 5.75 10.413 5.75 9.75C5.75 9.08696 5.48661 8.45107 5.01777 7.98223C4.54893 7.51339 3.91304 7.25 3.25 7.25C2.58696 7.25 1.95107 7.51339 1.48223 7.98223C1.01339 8.45107 0.75 9.08696 0.75 9.75C0.75 10.413 1.01339 11.0489 1.48223 11.5178C1.95107 11.9866 2.58696 12.25 3.25 12.25Z" stroke="#253017" stroke-width="1.5" stroke-linejoin="round"/>
<path d="M11.75 4.53711L5.41999 8.37211M5.41949 11.0316L12.0895 14.9731" stroke="#253017" stroke-width="1.5" stroke-linecap="round" stroke-linejoin="round"/>
<path d="M14.25 13.75C14.913 13.75 15.5489 14.0134 16.0178 14.4822C16.4866 14.9511 16.75 15.587 16.75 16.25C16.75 16.913 16.4866 17.5489 16.0178 18.0178C15.5489 18.4866 14.913 18.75 14.25 18.75C13.587 18.75 12.9511 18.4866 12.4822 18.0178C12.0134 17.5489 11.75 16.913 11.75 16.25C11.75 15.587 12.0134 14.9511 12.4822 14.4822C12.9511 14.0134 13.587 13.75 14.25 13.75Z" stroke="#253017" stroke-width="1.5" stroke-linejoin="round"/>
</svg>
