<svg width="24" height="24" viewBox="0 0 24 24" fill="none" xmlns="http://www.w3.org/2000/svg">
<path d="M11.9895 12.6977C9.04063 12.6977 6.64062 10.2977 6.64062 7.34884C6.64062 4.4 9.04063 2 11.9895 2C14.9383 2 17.3383 4.4 17.3383 7.34884C17.3383 10.2977 14.9383 12.6977 11.9895 12.6977ZM11.9895 3.39535C9.81272 3.39535 8.03597 5.17209 8.03597 7.34884C8.03597 9.52558 9.81272 11.3023 11.9895 11.3023C14.1662 11.3023 15.943 9.52558 15.943 7.34884C15.943 5.17209 14.1662 3.39535 11.9895 3.39535Z" fill="#253017"/>
<path d="M19.9798 22.0007C19.5984 22.0007 19.2822 21.6844 19.2822 21.3031C19.2822 18.0937 16.0078 15.4891 11.9892 15.4891C7.97055 15.4891 4.69613 18.0937 4.69613 21.3031C4.69613 21.6844 4.37985 22.0007 3.99846 22.0007C3.61706 22.0007 3.30078 21.6844 3.30078 21.3031C3.30078 17.331 7.19845 14.0938 11.9892 14.0938C16.7798 14.0938 20.6775 17.331 20.6775 21.3031C20.6775 21.6844 20.3612 22.0007 19.9798 22.0007Z" fill="#253017"/>
</svg>
