<svg width="22" height="22" viewBox="0 0 22 22" fill="none" xmlns="http://www.w3.org/2000/svg">
<path d="M4.84 13.75C4.45066 12.87 4.24969 11.9183 4.25 10.956C4.25 7.251 7.16 4.25 10.75 4.25C14.34 4.25 17.25 7.252 17.25 10.956C17.2503 11.9183 17.0493 12.87 16.66 13.75M10.75 0.75V1.75M20.75 10.75H19.75M1.75 10.75H0.75M17.82 3.679L17.113 4.386M4.387 4.387L3.68 3.68M13.267 18.057C14.277 17.73 14.683 16.805 14.797 15.875C14.831 15.597 14.602 15.366 14.322 15.366H7.227C7.15862 15.3649 7.0908 15.3784 7.028 15.4054C6.96521 15.4325 6.90888 15.4726 6.86275 15.5231C6.81662 15.5736 6.78173 15.6333 6.7604 15.6983C6.73906 15.7632 6.73177 15.832 6.739 15.9C6.851 16.828 7.133 17.506 8.203 18.056M13.267 18.057L8.203 18.056M13.267 18.057C13.146 20.002 12.584 20.772 10.757 20.75C8.803 20.786 8.353 19.833 8.203 18.056" stroke="#253017" stroke-width="1.5" stroke-linecap="round" stroke-linejoin="round"/>
</svg>
